<svg width="268" height="45" viewBox="0 0 268 45" fill="none" xmlns="http://www.w3.org/2000/svg">
<path d="M26.5601 44.8L20.8001 32.832C19.7121 32.832 18.3041 32.832 17.0881 32.832V44.8H0.000117302V-1.52588e-05C0.000117302 -1.52588e-05 22.5921 -1.52588e-05 22.8481 -1.52588e-05C35.8401 -1.52588e-05 42.1761 5.43999 42.1761 16.448C42.1761 22.4 40.3201 26.688 36.6081 29.376L44.8641 44.8H26.5601ZM21.1841 12.8C20.2241 12.8 18.5601 12.8 17.0881 12.8V20.032C18.5601 20.032 20.2241 20.032 21.1841 20.032C24.0001 20.032 25.5361 19.072 25.5361 16.448C25.5361 13.76 24.0001 12.8 21.1841 12.8ZM102.701 -1.52588e-05H121.645L109.421 44.8H88.6211L83.4371 22.528H82.9891L77.8051 44.8H57.0691L44.8451 -1.52588e-05H63.7251L68.1411 25.92H68.7171L74.7971 -1.52588e-05H91.6931L97.7091 25.92H98.3491L102.701 -1.52588e-05ZM152.685 44.8L146.925 32.832C145.837 32.832 144.429 32.832 143.213 32.832V44.8H126.125V-1.52588e-05C126.125 -1.52588e-05 148.717 -1.52588e-05 148.973 -1.52588e-05C161.965 -1.52588e-05 168.301 5.43999 168.301 16.448C168.301 22.4 166.445 26.688 162.733 29.376L170.989 44.8H152.685ZM147.309 12.8C146.349 12.8 144.685 12.8 143.213 12.8V20.032C144.685 20.032 146.349 20.032 147.309 20.032C150.125 20.032 151.661 19.072 151.661 16.448C151.661 13.76 150.125 12.8 147.309 12.8ZM191.837 29.568H214.877V44.8H174.813V-1.52588e-05H191.837V29.568ZM244.008 -1.52588e-05C259.304 -1.52588e-05 267.432 8.57598 267.432 22.4C267.432 36.224 259.304 44.8 244.008 44.8C243.56 44.8 219.688 44.8 219.688 44.8V-1.52588e-05C219.688 -1.52588e-05 243.56 -1.52588e-05 244.008 -1.52588e-05ZM241.64 29.44C247.336 29.44 249.64 26.56 249.64 22.4C249.64 18.24 247.336 15.36 241.64 15.36C239.272 15.36 237.352 15.36 236.776 15.36V29.44C237.352 29.44 239.272 29.44 241.64 29.44Z" fill="black"/>
</svg>
