<svg width="162" height="128" viewBox="0 0 162 128" fill="none" xmlns="http://www.w3.org/2000/svg">
<path d="M12.3786 127.592C-4.30431 124.766 0.754714 104.785 0.616902 92.6562C1.24251 78.8862 1.66706 65.0527 2.3933 51.3196C3.63279 42.6266 16.8269 42.4186 18.275 50.9872C18.438 71.1158 16.1595 91.4666 16.3214 111.698C36.6458 107.125 53.8668 93.4591 72.825 85.1265C81.9138 79.9822 89.932 94.2249 80.7277 99.2336C58.81 108.275 36.5975 128.198 12.3786 127.592Z" fill="white"/>
<path d="M16.2132 118.912C6.95299 102.707 35.0827 52.2108 43.7406 35.7963C55.8014 10.6566 85.1033 -9.39643 112.618 4.61469C129.357 13.4573 142.813 27.3397 158.603 37.7285C166.773 44.2081 156.685 56.9918 148.539 50.3819C146.581 48.7338 144.532 47.2035 142.466 45.6931C130.063 38.4578 120.392 27.4635 107.958 20.3353C72.8257 2.36586 54.3598 48.715 42.5868 73.8093C37.8816 85.0587 32.9535 96.8539 30.3367 108.73C30.0296 110.018 30.3042 111.162 30.7863 112.368C33.0495 120.826 21.0985 126.172 16.2132 118.912Z" fill="white"/>
</svg>
